<?xml version="1.0" ?><!DOCTYPE svg  PUBLIC '-//W3C//DTD SVG 1.1//EN'  'http://www.w3.org/Graphics/SVG/1.1/DTD/svg11.dtd'><svg enable-background="new 0 0 92.168 92.168" height="92.168px" id="Слой_1" version="1.1" viewBox="0 0 92.168 92.168" width="92.168px" xml:space="preserve" xmlns="http://www.w3.org/2000/svg" xmlns:xlink="http://www.w3.org/1999/xlink"><rect clip-rule="evenodd" fill="none" fill-rule="evenodd" height="92.168" width="92.168" x="0" y="0"/><path clip-rule="evenodd" d="M65.004,15.145c0.317,0.69,0.297,0.75,0.989,1.045  c15.014,6.626,16.656,18.28,11.928,26.544c-0.079,0.138-0.099,0.256-0.079,0.395c1.286,13.094-14.52,22.007-25.359,10.214  c-1.128-1.222-0.89-0.965,0.435-0.493c4.747,1.696,10.998,1.361,15.409-1.341c1.682-1.025,1.365-1.065-0.079-0.434  c-5.183,2.248-11.631,1.578-17.704-2.958c-1.049-0.769-1.029-0.63,0.177-0.907C63.778,44.311,68.96,32.913,67.26,23.783  c-0.396-2.189-0.415-2.485-0.415-0.118c0,11.379-9.238,20.588-20.652,20.588c-11.393,0-20.651-9.209-20.651-20.588  c0-0.946,0.06-1.893,0.198-2.82c0.257-1.913,0.296-1.893-0.416-0.039c-3.6,9.427,1.187,23.172,15.726,26.406  c1.187,0.276,1.207,0.138,0.178,0.907c-6.073,4.535-12.541,5.206-17.704,2.958c-1.464-0.63-1.781-0.591-0.099,0.434  c4.411,2.702,10.662,3.037,15.409,1.341c1.325-0.473,1.563-0.73,0.436,0.493c-10.821,11.793-26.646,2.88-25.36-10.214  c0.02-0.139,0-0.257-0.079-0.395c-4.807-8.401-3.026-20.332,12.739-26.879c0.752-0.316,0.732-0.552,1.088-1.282  C35.294-0.828,57.863-0.513,65.004,15.145L65.004,15.145z M49.794,51.805c0.316,2.761,1.641,4.339,3.224,6.666  c1.563,2.307,3.007,4.536,3.779,6.331c2.057,4.831-1.543,9.131-6.904,7.948c-1.622-0.355-1.285-0.355-0.553,1.123  c1.048,2.071,2.591,3.156,4.906,4.813c5.439,3.943,22.352,3.451,33.844-0.336c4.846-1.597,5.202,1.322,1.978,4.556  c-3.896,3.905-8.881,4.477-19.899,2.997c-3.719-0.513-9.218,3.076-12.976,3.057c-3.046-0.02-5.935-1.282-8.862-2.288  c-1.82-0.631-2.334-0.73-4.154-0.118c-3.026,1.026-6.033,2.386-9.198,2.406c-3.759,0.019-9.258-3.57-12.976-3.057  c-11.018,1.479-16.003,0.908-19.9-2.997c-3.224-3.234-2.868-6.152,1.978-4.556c11.493,3.787,28.406,4.279,33.845,0.336  c2.315-1.657,3.857-2.741,4.906-4.813c0.732-1.478,1.067-1.478-0.554-1.123c-5.36,1.183-8.96-3.117-6.903-7.948  c0.752-1.794,2.216-4.023,3.778-6.331c1.582-2.326,2.868-3.904,3.224-6.666C43.206,45.12,49.081,45.218,49.794,51.805L49.794,51.805  z" fill="#434A54" fill-rule="evenodd"/></svg>